<?xml version="1.0" encoding="UTF-8"?>
<svg version="1.1" xmlns="http://www.w3.org/2000/svg" width="256" height="256">
<path d="M0 0 C4.03266374 1.84983229 7.84553674 4.03584925 11.6875 6.25 C29.91217439 16.42675304 45.80613443 23.10303045 66.70703125 17.39453125 C75.17953473 14.819121 82.95929088 10.36728249 90.578125 5.92578125 C97.13894681 2.164752 101.39170213 0.09732059 109 1 C109.49897083 5.65706106 109.57986853 8.82464201 106.875 12.75 C103.18586018 17.22088612 98.68102085 20.79250094 94.25756836 24.50463867 C84.64443137 32.60467938 77.08397511 41.17323309 75 54 C74.87496777 56.58347194 74.79184304 59.14602061 74.75390625 61.73046875 C74.72263875 63.26335435 74.690967 64.79623174 74.65893555 66.32910156 C74.64357758 67.12384888 74.6282196 67.91859619 74.61239624 68.73742676 C73.81340732 107.97047032 73.81340732 107.97047032 68 116 C65.63660722 117.61903878 64.60114819 118.10019137 61.75 117.625 C61.1725 117.41875 60.595 117.2125 60 117 C58.14116458 110.438087 57.64184286 104.41470428 57.52148438 97.62304688 C57.33851113 92.40607797 56.64210311 88.55835371 54 84 C51.45631001 82.49547543 51.45631001 82.49547543 49 82 C47.01265409 89.44197618 45.376757 96.87205693 44.1784668 104.47851562 C43.41599794 108.93209012 42.26438926 112.73561074 39 116 C34.61801669 116.4612614 34.61801669 116.4612614 32.44165039 114.83691406 C24.19885978 104.33416105 27.86002384 83.30367168 28.13696289 70.92041016 C28.20367632 67.68134184 28.2453737 64.44261959 28.28515625 61.203125 C28.31521255 60.22684143 28.34526886 59.25055786 28.37623596 58.24468994 C28.47311594 49.17226858 26.10270369 41.4328079 19.6875 34.8125 C18.89601562 33.98621094 18.10453125 33.15992188 17.2890625 32.30859375 C16.53367187 31.54675781 15.77828125 30.78492188 15 30 C14.11441406 29.05833984 14.11441406 29.05833984 13.2109375 28.09765625 C8.58409996 23.26250138 3.4735734 18.8525151 -2 15 C-2.66 15 -3.32 15 -4 15 C-5.33740979 18.88771346 -6.6400525 22.78628607 -7.9375 26.6875 C-8.31068359 27.77095703 -8.68386719 28.85441406 -9.06835938 29.97070312 C-14.14475337 45.38281824 -13.58148856 57.00005835 -6.33984375 71.37109375 C-3.77077703 76.35441914 -1.13226003 81.29938386 1.52099609 86.23828125 C15.17589815 111.73584679 15.17589815 111.73584679 13 124 C11.35 124.66 9.7 125.32 8 126 C3.39692334 122.80950771 1.11117368 119.33591741 -1.5625 114.5625 C-6.14435636 105.5462045 -6.14435636 105.5462045 -14 100 C-15.67413473 100.29353328 -17.34261967 100.62319854 -19 101 C-18.10765026 107.40030155 -16.26399018 113.09699359 -13.875 119.0625 C-11.5309455 124.9599092 -10.31133503 129.57246031 -11 136 C-14.82174758 136.47771845 -17.54998065 136.77466787 -20.99609375 134.93359375 C-30.75131386 127.10193817 -36.1325481 114.92281042 -41.5 103.9375 C-49.55485539 86.46142463 -49.55485539 86.46142463 -64.45703125 75.1953125 C-73.58313841 72.11638329 -82.86943661 69.8203472 -92.3046875 67.90625 C-93.16441162 67.73174316 -94.02413574 67.55723633 -94.90991211 67.37744141 C-96.55683294 67.05006161 -98.20606685 66.73404827 -99.85766602 66.43115234 C-107.18272512 65.0105444 -107.18272512 65.0105444 -110 62 C-110.25 58.8125 -110.25 58.8125 -110 56 C-106.19417941 53.52634124 -102.24805017 53.62830896 -97.859375 53.5078125 C-96.21352542 53.44181025 -94.56769257 53.37538953 -92.921875 53.30859375 C-90.3556145 53.21486016 -87.78938757 53.12622515 -85.22265625 53.04638672 C-65.55674658 52.40594075 -48.72157119 49.80011521 -34.515625 34.96875 C-28.31425052 27.65035775 -23.22036984 19.53806451 -18.875 11 C-14.53646511 2.85915364 -9.72469413 -2.91218639 0 0 Z " fill="#1A237E" transform="translate(142,108)"/>
<path d="M0 0 C2.17885622 -0.00969997 4.35676445 -0.04080873 6.53540039 -0.07226562 C14.93747611 -0.13772114 22.90986184 0.3054591 30.88110352 3.24023438 C31.54471893 3.46592102 32.20833435 3.69160767 32.89205933 3.9241333 C35.98433895 5.16848995 38.25514859 6.1688661 39.97441101 9.11151123 C40.79833152 11.4759327 41.38932164 13.81061389 41.92797852 16.25585938 C42.15132874 17.14448669 42.37467896 18.03311401 42.60479736 18.94866943 C43.31127295 21.78929132 43.9717497 24.638348 44.63110352 27.49023438 C45.08771806 29.36076605 45.54732753 31.23056932 46.01000977 33.09960938 C46.90899486 36.74929954 47.78594899 40.40315994 48.64477539 44.0625 C49.43091063 47.39684046 50.25585306 50.71580522 51.13305664 54.02734375 C51.32579163 54.76160583 51.51852661 55.49586792 51.71710205 56.25238037 C52.23430061 58.20808188 52.76094939 60.16127744 53.28833008 62.11425781 C53.83998055 65.02337341 53.92255213 66.51892068 52.88110352 69.24023438 C52.33583008 68.9025 51.79055664 68.56476563 51.22875977 68.21679688 C50.4746582 67.77078125 49.72055664 67.32476562 48.94360352 66.86523438 C47.84725586 66.20394531 47.84725586 66.20394531 46.72875977 65.52929688 C26.94075999 56.57176611 -0.64819894 62.35597494 -21.11889648 66.24023438 C-22.81780029 66.56169434 -22.81780029 66.56169434 -24.55102539 66.88964844 C-75.9463736 76.84835785 -140.93269759 92.67024589 -181.30639648 127.80273438 C-184.11889648 130.24023438 -184.11889648 130.24023438 -186.11889648 130.24023438 C-189.84249122 117.79904725 -193.20183199 105.27359228 -196.37747192 92.68273926 C-196.78764546 91.05747814 -197.19980893 89.43271789 -197.61398315 87.80847168 C-198.20265932 85.49559376 -198.78307966 83.18079938 -199.36108398 80.86523438 C-199.53892929 80.17012756 -199.7167746 79.47502075 -199.90000916 78.7588501 C-200.77730577 75.19962177 -201.51238289 71.90766035 -201.11889648 68.24023438 C-179.71634574 44.35001241 -139.22482472 31.89357466 -109.73120117 22.10888672 C-107.38894846 21.33003297 -105.05445526 20.5316629 -102.72045898 19.72851562 C-76.95673987 11.04812865 -50.00324702 5.10714555 -23.11889648 1.24023438 C-22.38695068 1.12969727 -21.65500488 1.01916016 -20.90087891 0.90527344 C-13.97036569 -0.01649876 -6.97977704 0.01873137 0 0 Z M6.88110352 2.24023438 C7.54110352 4.55023438 8.20110352 6.86023438 8.88110352 9.24023438 C9.87110352 9.24023438 10.86110352 9.24023438 11.88110352 9.24023438 C11.22110352 6.93023437 10.56110352 4.62023437 9.88110352 2.24023438 C8.89110352 2.24023438 7.90110352 2.24023438 6.88110352 2.24023438 Z M-14.11889648 3.24023438 C-13.77662077 6.21088947 -13.77662077 6.21088947 -13.11889648 9.24023438 C-12.45889648 9.57023437 -11.79889648 9.90023438 -11.11889648 10.24023438 C-10.45889648 9.91023438 -9.79889648 9.58023437 -9.11889648 9.24023438 C-9.44889648 7.26023437 -9.77889648 5.28023437 -10.11889648 3.24023438 C-11.43889648 3.24023438 -12.75889648 3.24023438 -14.11889648 3.24023438 Z M-1.11889648 2.24023438 C-2.10889648 2.73523438 -2.10889648 2.73523438 -3.11889648 3.24023438 C-2.45889648 5.22023438 -1.79889648 7.20023438 -1.11889648 9.24023438 C-0.12889648 9.24023438 0.86110352 9.24023438 1.88110352 9.24023438 C1.5388278 6.26957928 1.5388278 6.26957928 0.88110352 3.24023438 C0.22110352 2.91023437 -0.43889648 2.58023437 -1.11889648 2.24023438 Z M15.88110352 3.24023438 C16.54110352 5.22023438 17.20110352 7.20023438 17.88110352 9.24023438 C18.54110352 9.24023438 19.20110352 9.24023438 19.88110352 9.24023438 C19.55110352 7.26023437 19.22110352 5.28023437 18.88110352 3.24023438 C17.89110352 3.24023438 16.90110352 3.24023438 15.88110352 3.24023438 Z M23.88110352 4.24023438 C24.87110352 6.55023438 25.86110352 8.86023438 26.88110352 11.24023438 C27.21110352 10.58023437 27.54110352 9.92023437 27.88110352 9.24023438 C26.98746747 6.63092171 26.98746747 6.63092171 25.88110352 4.24023438 C25.22110352 4.24023438 24.56110352 4.24023438 23.88110352 4.24023438 Z M-26.11889648 5.24023438 C-25.78889648 7.22023438 -25.45889648 9.20023438 -25.11889648 11.24023438 C-23.79889648 11.24023438 -22.47889648 11.24023438 -21.11889648 11.24023438 C-21.44889648 9.26023437 -21.77889648 7.28023437 -22.11889648 5.24023438 C-23.43889648 5.24023438 -24.75889648 5.24023438 -26.11889648 5.24023438 Z M30.88110352 6.24023438 C31.21110352 7.89023437 31.54110352 9.54023438 31.88110352 11.24023438 C32.21110352 9.92023437 32.54110352 8.60023437 32.88110352 7.24023438 C32.22110352 6.91023438 31.56110352 6.58023437 30.88110352 6.24023438 Z M-39.11889648 7.24023438 C-38.78889648 9.22023438 -38.45889648 11.20023438 -38.11889648 13.24023438 C-36.46889648 13.24023438 -34.81889648 13.24023438 -33.11889648 13.24023438 C-33.77889648 10.93023437 -34.43889648 8.62023437 -35.11889648 6.24023438 C-36.48782888 6.18752975 -36.48782888 6.18752975 -39.11889648 7.24023438 Z M-52.11889648 9.24023438 C-53.16339559 12.3737317 -53.05313293 13.22991694 -52.11889648 16.24023438 C-50.46889648 15.91023438 -48.81889648 15.58023437 -47.11889648 15.24023438 C-47.44889648 13.26023437 -47.77889648 11.28023437 -48.11889648 9.24023438 C-49.43889648 9.24023438 -50.75889648 9.24023438 -52.11889648 9.24023438 Z M36.88110352 10.24023438 C37.88110352 12.24023438 37.88110352 12.24023438 37.88110352 12.24023438 Z M-67.11889648 13.24023438 C-66.78889648 15.22023438 -66.45889648 17.20023438 -66.11889648 19.24023438 C-64.13889648 18.91023438 -62.15889648 18.58023437 -60.11889648 18.24023438 C-60.77889648 16.26023437 -61.43889648 14.28023437 -62.11889648 12.24023438 C-65.04436089 12.01662758 -65.04436089 12.01662758 -67.11889648 13.24023438 Z M-16.11889648 13.24023438 C-14.4707081 21.21226137 -12.25673866 28.98593365 -9.99389648 36.80273438 C-8.71514648 41.23710938 -7.43639648 45.67148437 -6.11889648 50.24023438 C4.44110352 49.91023438 15.00110352 49.58023438 25.88110352 49.24023438 C25.18198218 44.34638504 24.41589305 40.18089912 23.06860352 35.50195312 C22.71540039 34.27025391 22.36219727 33.03855469 21.99829102 31.76953125 C21.81492188 31.13909912 21.63155273 30.50866699 21.44262695 29.85913086 C20.87788222 27.91665453 20.32036106 25.9722121 19.76391602 24.02734375 C18.17676528 18.00124029 18.17676528 18.00124029 15.88110352 12.24023438 C6.32366957 9.98797023 -6.6611426 10.68210727 -16.11889648 13.24023438 Z M20.88110352 12.24023438 C22.28431655 17.33129632 23.69021656 22.42160551 25.09863281 27.51123047 C25.57756647 29.24344693 26.05575992 30.97586823 26.53320312 32.70849609 C27.21884651 35.19617831 27.90713204 37.68311631 28.59594727 40.16992188 C28.80952377 40.94705536 29.02310028 41.72418884 29.2431488 42.52487183 C30.31193983 46.47438215 30.31193983 46.47438215 31.88110352 50.24023438 C34.51782357 51.0847241 34.51782357 51.0847241 37.63110352 51.74023438 C41.56430412 52.63150151 45.15540087 53.70454484 48.88110352 55.24023438 C47.46096727 47.06775222 45.89373186 38.94317333 44.00610352 30.86523438 C43.78180664 29.71667969 43.55750977 28.568125 43.32641602 27.38476562 C41.77089234 20.92162489 41.77089234 20.92162489 37.19262695 16.37597656 C31.8258973 14.04152447 26.67872696 12.96482366 20.88110352 12.24023438 Z M37.88110352 13.24023438 C38.88110352 15.24023438 38.88110352 15.24023438 38.88110352 15.24023438 Z M-32.91186523 15.38476562 C-33.5767244 15.51461349 -34.24158356 15.64446136 -34.92658997 15.77824402 C-36.33522393 16.05475422 -37.74314769 16.33490361 -39.15039062 16.6184082 C-41.27976037 17.04736854 -43.41092119 17.46613397 -45.54272461 17.8828125 C-52.11035513 19.17585364 -58.64739652 20.51953724 -65.11889648 22.24023438 C-64.46375446 30.3099203 -62.18502633 37.96356694 -60.05639648 45.74023438 C-59.67504355 47.14895502 -59.29417991 48.55780823 -58.91381836 49.96679688 C-57.98781853 53.39282386 -57.05519415 56.81700541 -56.11889648 60.24023438 C-46.66218413 58.73156723 -37.26569737 56.9526465 -27.86889648 55.11523438 C-26.43012304 54.8351393 -24.99132111 54.5551905 -23.55249023 54.27539062 C-20.07429667 53.59868594 -16.59648914 52.92002124 -13.11889648 52.24023438 C-15.34261409 43.05928015 -17.68281181 33.91297048 -20.18139648 24.80273438 C-20.42647949 23.87307861 -20.6715625 22.94342285 -20.92407227 21.9855957 C-21.16496582 21.12216553 -21.40585938 20.25873535 -21.65405273 19.36914062 C-21.86425049 18.59642822 -22.07444824 17.82371582 -22.29101562 17.02758789 C-22.56421631 16.43776123 -22.83741699 15.84793457 -23.11889648 15.24023438 C-26.8997126 13.97996234 -29.00876759 14.61221109 -32.91186523 15.38476562 Z M-81.11889648 16.24023438 C-80.78889648 18.55023437 -80.45889648 20.86023438 -80.11889648 23.24023438 C-78.46889648 22.91023438 -76.81889648 22.58023438 -75.11889648 22.24023438 C-75.44889648 19.93023437 -75.77889648 17.62023437 -76.11889648 15.24023438 C-77.83972572 15.24023438 -79.46118234 15.81243718 -81.11889648 16.24023438 Z M-95.11889648 21.24023438 C-94.78889648 23.22023438 -94.45889648 25.20023438 -94.11889648 27.24023438 C-92.46889648 26.91023438 -90.81889648 26.58023438 -89.11889648 26.24023438 C-89.44889648 23.93023437 -89.77889648 21.62023437 -90.11889648 19.24023438 C-91.95936036 19.24023438 -93.51519242 20.41251615 -95.11889648 21.24023438 Z M-109.11889648 25.24023438 C-109.11889648 27.22023438 -109.11889648 29.20023438 -109.11889648 31.24023438 C-108.12889648 31.73523438 -108.12889648 31.73523438 -107.11889648 32.24023438 C-105.00205807 31.3485986 -105.00205807 31.3485986 -103.11889648 30.24023438 C-103.44889648 28.26023437 -103.77889648 26.28023437 -104.11889648 24.24023438 C-107.04436089 24.01662758 -107.04436089 24.01662758 -109.11889648 25.24023438 Z M-84.48217773 27.22460938 C-85.19238571 27.44086975 -85.90259369 27.65713013 -86.63432312 27.87994385 C-88.13609675 28.33935958 -89.63638578 28.80365267 -91.13525391 29.27246094 C-93.40982195 29.98349018 -95.6885354 30.679561 -97.96850586 31.37304688 C-99.4316668 31.82268904 -100.89456625 32.27318314 -102.35717773 32.72460938 C-103.03033524 32.93100037 -103.70349274 33.13739136 -104.39704895 33.35003662 C-108.78051619 34.72626643 -112.9288527 36.37407187 -117.11889648 38.24023438 C-116.57778141 46.47707618 -114.90926984 54.33468348 -113.05639648 62.36523438 C-112.77473633 63.60789063 -112.49307617 64.85054687 -112.20288086 66.13085938 C-111.51355281 69.16857621 -110.81878469 72.20493647 -110.11889648 75.24023438 C-106.8740375 76.3185049 -105.07123913 76.16568922 -101.87280273 75.01757812 C-101.04482178 74.72890869 -100.21684082 74.44023926 -99.36376953 74.14282227 C-98.47858643 73.82434326 -97.59340332 73.50586426 -96.68139648 73.17773438 C-85.92718497 69.43882855 -75.08653559 66.29923576 -64.11889648 63.24023438 C-67.08889648 51.03023437 -70.05889648 38.82023437 -73.11889648 26.24023438 C-77.63083453 25.11224986 -80.21865323 25.87826981 -84.48217773 27.22460938 Z M-122.11889648 29.24023438 C-123.12106713 32.82351191 -123.12106713 32.82351191 -122.11889648 36.24023438 C-120.46889648 35.91023438 -118.81889648 35.58023438 -117.11889648 35.24023438 C-117.44889648 33.26023437 -117.77889648 31.28023437 -118.11889648 29.24023438 C-119.43889648 29.24023438 -120.75889648 29.24023438 -122.11889648 29.24023438 Z M-135.11889648 34.24023438 C-135.77889648 34.90023437 -136.43889648 35.56023438 -137.11889648 36.24023438 C-136.79848251 38.84304006 -136.79848251 38.84304006 -136.11889648 41.24023438 C-134.46889648 40.91023438 -132.81889648 40.58023438 -131.11889648 40.24023438 C-131.11889648 38.59023438 -131.11889648 36.94023438 -131.11889648 35.24023438 C-133.01068852 34.55875208 -133.01068852 34.55875208 -135.11889648 34.24023438 Z M-147.11889648 39.24023438 C-148.10889648 39.73523437 -148.10889648 39.73523437 -149.11889648 40.24023438 C-148.78889648 42.55023438 -148.45889648 44.86023437 -148.11889648 47.24023438 C-146.79889648 46.58023438 -145.47889648 45.92023437 -144.11889648 45.24023438 C-144.11889648 43.59023438 -144.11889648 41.94023438 -144.11889648 40.24023438 C-145.10889648 39.91023438 -146.09889648 39.58023438 -147.11889648 39.24023438 Z M-132.65014648 43.47070312 C-133.77163086 43.94443359 -134.89311523 44.41816406 -136.04858398 44.90625 C-137.22678711 45.40833984 -138.40499023 45.91042969 -139.61889648 46.42773438 C-140.76616211 46.91048828 -141.91342773 47.39324219 -143.09545898 47.890625 C-149.89785547 50.77660756 -156.56052095 53.83485209 -163.11889648 57.24023438 C-162.54628074 65.77535517 -160.84246716 74.0144532 -159.05639648 82.36523438 C-158.77140888 83.71669524 -158.4869003 85.06825721 -158.20288086 86.41992188 C-157.51290555 89.69438099 -156.81813841 92.96774388 -156.11889648 96.24023438 C-148.4386306 93.24368169 -140.9349431 89.94395713 -133.44311523 86.5078125 C-128.39502866 84.21073745 -123.33535666 82.12562934 -118.11889648 80.24023438 C-118.69151223 71.70511358 -120.39532581 63.46601555 -122.18139648 55.11523438 C-122.46638409 53.76377351 -122.75089267 52.41221154 -123.03491211 51.06054688 C-123.72488742 47.78608776 -124.41965456 44.51272487 -125.11889648 41.24023438 C-127.97042208 41.24023438 -130.02438903 42.36100801 -132.65014648 43.47070312 Z M-161.11889648 46.24023438 C-160.78889648 48.22023437 -160.45889648 50.20023438 -160.11889648 52.24023438 C-158.79889648 51.91023438 -157.47889648 51.58023438 -156.11889648 51.24023438 C-156.44889648 48.93023437 -156.77889648 46.62023438 -157.11889648 44.24023438 C-158.58114665 44.14778434 -158.58114665 44.14778434 -161.11889648 46.24023438 Z M-170.11889648 50.24023438 C-171.33580181 52.00553033 -171.33580181 52.00553033 -172.11889648 54.24023438 C-171.33580181 56.47493842 -171.33580181 56.47493842 -170.11889648 58.24023438 C-169.12889648 57.58023438 -168.13889648 56.92023438 -167.11889648 56.24023438 C-167.44889648 54.26023437 -167.77889648 52.28023437 -168.11889648 50.24023438 C-168.77889648 50.24023438 -169.43889648 50.24023438 -170.11889648 50.24023438 Z M11.88110352 51.24023438 C12.21110352 53.55023438 12.54110352 55.86023438 12.88110352 58.24023438 C13.87110352 58.24023438 14.86110352 58.24023438 15.88110352 58.24023438 C15.55110352 55.93023437 15.22110352 53.62023437 14.88110352 51.24023438 C13.89110352 51.24023438 12.90110352 51.24023438 11.88110352 51.24023438 Z M21.88110352 51.24023438 C22.21110352 53.22023437 22.54110352 55.20023438 22.88110352 57.24023438 C23.87110352 57.24023438 24.86110352 57.24023438 25.88110352 57.24023438 C25.22110352 55.26023437 24.56110352 53.28023437 23.88110352 51.24023438 C23.22110352 51.24023438 22.56110352 51.24023438 21.88110352 51.24023438 Z M-0.11889648 52.24023438 C0.54110352 54.55023438 1.20110352 56.86023438 1.88110352 59.24023438 C3.20110352 58.58023438 4.52110352 57.92023438 5.88110352 57.24023438 C5.22110352 55.59023437 4.56110352 53.94023438 3.88110352 52.24023438 C2.56110352 52.24023438 1.24110352 52.24023438 -0.11889648 52.24023438 Z M30.88110352 52.24023438 C31.21110352 54.22023437 31.54110352 56.20023438 31.88110352 58.24023438 C32.54110352 58.24023438 33.20110352 58.24023438 33.88110352 58.24023438 C33.55110352 56.26023437 33.22110352 54.28023437 32.88110352 52.24023438 C32.22110352 52.24023438 31.56110352 52.24023438 30.88110352 52.24023438 Z M37.88110352 53.24023438 C38.54110352 55.22023437 39.20110352 57.20023438 39.88110352 59.24023438 C40.21110352 58.25023437 40.54110352 57.26023437 40.88110352 56.24023438 C39.89110352 55.25023437 38.90110352 54.26023438 37.88110352 53.24023438 Z M-12.11889648 54.24023438 C-11.78889648 56.22023437 -11.45889648 58.20023438 -11.11889648 60.24023438 C-9.46889648 60.24023438 -7.81889648 60.24023438 -6.11889648 60.24023438 C-6.77889648 58.26023437 -7.43889648 56.28023437 -8.11889648 54.24023438 C-9.43889648 54.24023438 -10.75889648 54.24023438 -12.11889648 54.24023438 Z M-180.11889648 56.24023438 C-182.45280852 59.02137493 -182.45280852 59.02137493 -181.74389648 61.92773438 C-181.53764648 62.69085938 -181.33139648 63.45398438 -181.11889648 64.24023438 C-179.79889648 63.58023438 -178.47889648 62.92023438 -177.11889648 62.24023438 C-177.44889648 60.26023437 -177.77889648 58.28023437 -178.11889648 56.24023438 C-178.77889648 56.24023438 -179.43889648 56.24023438 -180.11889648 56.24023438 Z M-25.11889648 56.24023438 C-24.78889648 58.22023437 -24.45889648 60.20023438 -24.11889648 62.24023438 C-22.46889648 62.24023438 -20.81889648 62.24023438 -19.11889648 62.24023438 C-19.44889648 60.26023437 -19.77889648 58.28023437 -20.11889648 56.24023438 C-21.76889648 56.24023438 -23.41889648 56.24023438 -25.11889648 56.24023438 Z M44.88110352 56.24023438 C45.88110352 59.24023438 45.88110352 59.24023438 45.88110352 59.24023438 Z M-36.11889648 58.24023438 C-38.2357349 59.13187015 -38.2357349 59.13187015 -40.11889648 60.24023438 C-39.45889648 61.89023438 -38.79889648 63.54023437 -38.11889648 65.24023438 C-36.46889648 65.24023438 -34.81889648 65.24023438 -33.11889648 65.24023438 C-33.4611722 62.26957928 -33.4611722 62.26957928 -34.11889648 59.24023438 C-34.77889648 58.91023438 -35.43889648 58.58023438 -36.11889648 58.24023438 Z M49.88110352 60.24023438 C50.88110352 62.24023438 50.88110352 62.24023438 50.88110352 62.24023438 Z M-189.11889648 62.24023438 C-190.47508147 63.36557542 -190.47508147 63.36557542 -190.18139648 66.30273438 C-190.16077148 67.27210937 -190.14014648 68.24148437 -190.11889648 69.24023438 C-189.12889648 69.24023438 -188.13889648 69.24023438 -187.11889648 69.24023438 C-187.11889648 67.26023437 -187.11889648 65.28023438 -187.11889648 63.24023438 C-187.77889648 62.91023438 -188.43889648 62.58023438 -189.11889648 62.24023438 Z M-172.11889648 62.24023438 C-174.8021137 63.64899803 -177.27343261 65.09593336 -179.80639648 66.74023438 C-180.52303467 67.20220215 -181.23967285 67.66416992 -181.97802734 68.14013672 C-184.03879119 69.48744216 -186.08212699 70.85698498 -188.11889648 72.24023438 C-189.06506836 72.8821875 -190.01124023 73.52414063 -190.98608398 74.18554688 C-193.97617147 76.34443345 -193.97617147 76.34443345 -196.11889648 79.24023438 C-195.90211993 86.88160799 -193.44685506 94.37306117 -191.55639648 101.74023438 C-191.22327418 103.05262277 -190.89058827 104.36512201 -190.55834961 105.67773438 C-189.74947328 108.86634832 -188.93620705 112.05377386 -188.11889648 115.24023438 C-183.2639783 115.24023438 -181.47412328 113.49161674 -177.93139648 110.55273438 C-172.91553317 106.52840368 -167.9137925 103.08527376 -162.11889648 100.24023438 C-162.85651907 93.17884741 -164.18510343 86.25770976 -165.59301758 79.30151367 C-165.86255063 77.95762383 -166.12612894 76.61252731 -166.3840332 75.26635742 C-166.75927729 73.30851076 -167.15362314 71.35435521 -167.54858398 69.40039062 C-167.77787598 68.241604 -168.00716797 67.08281738 -168.2434082 65.88891602 C-168.53231934 65.01485107 -168.82123047 64.14078613 -169.11889648 63.24023438 C-170.10889648 62.91023438 -171.09889648 62.58023438 -172.11889648 62.24023438 Z M-53.11889648 62.24023438 C-54.05313293 65.25055181 -54.16339559 66.10673705 -53.11889648 69.24023438 C-51.13889648 68.91023438 -49.15889648 68.58023438 -47.11889648 68.24023438 C-47.44889648 66.26023437 -47.77889648 64.28023438 -48.11889648 62.24023438 C-49.76889648 62.24023438 -51.41889648 62.24023438 -53.11889648 62.24023438 Z M-65.11889648 65.24023438 C-67.2357349 66.13187015 -67.2357349 66.13187015 -69.11889648 67.24023438 C-68.45889648 69.22023438 -67.79889648 71.20023437 -67.11889648 73.24023438 C-65.46889648 72.91023438 -63.81889648 72.58023438 -62.11889648 72.24023438 C-62.4611722 69.26957928 -62.4611722 69.26957928 -63.11889648 66.24023438 C-63.77889648 65.91023438 -64.43889648 65.58023438 -65.11889648 65.24023438 Z M-197.11889648 68.24023438 C-197.80672009 70.5939115 -197.80672009 70.5939115 -198.11889648 73.24023438 C-197.12889648 74.72523437 -197.12889648 74.72523437 -196.11889648 76.24023438 C-195.78889648 75.91023438 -195.45889648 75.58023438 -195.11889648 75.24023438 C-195.40619704 72.90078702 -195.73826428 70.56632007 -196.11889648 68.24023438 C-196.44889648 68.24023438 -196.77889648 68.24023438 -197.11889648 68.24023438 Z M-84.11889648 71.24023438 C-83.45889648 73.22023438 -82.79889648 75.20023437 -82.11889648 77.24023438 C-80.46889648 76.91023438 -78.81889648 76.58023438 -77.11889648 76.24023438 C-77.44889648 73.93023437 -77.77889648 71.62023437 -78.11889648 69.24023438 C-80.20317858 69.24023438 -82.21707613 70.46000038 -84.11889648 71.24023438 Z M-98.11889648 75.24023438 C-97.78889648 77.55023438 -97.45889648 79.86023438 -97.11889648 82.24023438 C-95.46889648 81.58023438 -93.81889648 80.92023438 -92.11889648 80.24023438 C-92.44889648 78.26023437 -92.77889648 76.28023438 -93.11889648 74.24023438 C-95.329715 74.13482512 -95.329715 74.13482512 -98.11889648 75.24023438 Z M-112.11889648 80.24023438 C-112.11889648 82.22023438 -112.11889648 84.20023437 -112.11889648 86.24023438 C-111.12889648 86.73523438 -111.12889648 86.73523438 -110.11889648 87.24023438 C-108.00205807 86.3485986 -108.00205807 86.3485986 -106.11889648 85.24023438 C-106.44889648 83.26023437 -106.77889648 81.28023438 -107.11889648 79.24023438 C-110.04436089 79.01662758 -110.04436089 79.01662758 -112.11889648 80.24023438 Z M-126.11889648 86.24023438 C-125.78889648 88.22023438 -125.45889648 90.20023437 -125.11889648 92.24023438 C-123.46889648 91.58023438 -121.81889648 90.92023438 -120.11889648 90.24023438 C-120.44889648 88.26023437 -120.77889648 86.28023438 -121.11889648 84.24023438 C-123.4424716 84.05533431 -123.4424716 84.05533431 -126.11889648 86.24023438 Z M-139.11889648 91.24023438 C-138.78889648 93.22023438 -138.45889648 95.20023437 -138.11889648 97.24023438 C-136.46889648 96.91023438 -134.81889648 96.58023438 -133.11889648 96.24023438 C-133.44889648 93.93023437 -133.77889648 91.62023437 -134.11889648 89.24023438 C-135.95936036 89.24023438 -137.51519242 90.41251615 -139.11889648 91.24023438 Z M-150.11889648 96.24023438 C-150.11889648 98.22023438 -150.11889648 100.20023437 -150.11889648 102.24023438 C-149.12889648 102.73523438 -149.12889648 102.73523438 -148.11889648 103.24023438 C-146.45268223 102.07571427 -146.45268223 102.07571427 -145.11889648 100.24023438 C-145.34933512 97.58557388 -145.34933512 97.58557388 -146.11889648 95.24023438 C-148.19343208 95.09116318 -148.19343208 95.09116318 -150.11889648 96.24023438 Z M-160.11889648 101.24023438 C-161.12106713 104.82351191 -161.12106713 104.82351191 -160.11889648 108.24023438 C-159.12889648 107.91023438 -158.13889648 107.58023438 -157.11889648 107.24023438 C-157.11889648 105.26023437 -157.11889648 103.28023438 -157.11889648 101.24023438 C-158.10889648 101.24023438 -159.09889648 101.24023438 -160.11889648 101.24023438 Z M-170.11889648 107.24023438 C-171.45221744 109.90687628 -170.78991682 111.40703741 -170.11889648 114.24023438 C-168.79889648 113.58023438 -167.47889648 112.92023438 -166.11889648 112.24023438 C-166.44889648 110.59023437 -166.77889648 108.94023438 -167.11889648 107.24023438 C-168.10889648 107.24023438 -169.09889648 107.24023438 -170.11889648 107.24023438 Z M-179.11889648 113.24023438 C-178.78889648 115.55023438 -178.45889648 117.86023438 -178.11889648 120.24023438 C-177.12889648 119.58023438 -176.13889648 118.92023438 -175.11889648 118.24023438 C-175.44889648 116.26023437 -175.77889648 114.28023438 -176.11889648 112.24023438 C-177.34250328 112.16569878 -177.34250328 112.16569878 -179.11889648 113.24023438 Z M-185.11889648 118.24023438 C-186.16339559 121.3737317 -186.05313293 122.22991694 -185.11889648 125.24023438 C-184.45889648 125.24023438 -183.79889648 125.24023438 -183.11889648 125.24023438 C-183.11889648 123.26023437 -183.11889648 121.28023438 -183.11889648 119.24023438 C-183.77889648 118.91023438 -184.43889648 118.58023438 -185.11889648 118.24023438 Z " fill="#1A237F" transform="translate(201.118896484375,10.759765625)"/>
<path d="M0 0 C5.23120355 3.15846252 8.04648471 7.2167118 10 13 C10.63270276 18.24239431 9.83272964 21.54856771 7 26 C5.10832066 28.18270693 3.79844075 28.87657691 0.953125 29.31640625 C-4.54743814 29.60250937 -7.72607342 28.69111841 -12 25 C-15.71578711 21.41512138 -17.89187113 18.29831486 -18 13 C-17.02726503 7.45541068 -15.27607852 4.63466674 -11 1 C-7.50159103 -0.74920449 -3.81747654 -0.55363066 0 0 Z " fill="#1A237E" transform="translate(90,122)"/>
<path d="M0 0 C4.19643266 2.97247313 6.05132977 5.97204779 7 11 C7.08273791 17.33979219 6.30568661 22.09630136 2 27 C-0.31118771 28.99018942 -1.85123132 29.9439625 -4.921875 30.09375 C-9.68677934 29.73548652 -12.64036906 28.55160985 -16 25 C-19.47390159 19.96883218 -19.86770197 14.9292968 -19 9 C-14.95767261 0.7656294 -8.80099937 -1.53438476 0 0 Z " fill="#1A237E" transform="translate(201,95)"/>
</svg>
