<?xml version="1.0" encoding="UTF-8"?><svg id="uuid-1d1a6867-fe4f-42bd-be5a-05676a30e2cb" xmlns="http://www.w3.org/2000/svg" width="764" height="115.76" xmlns:xlink="http://www.w3.org/1999/xlink" viewBox="0 0 764 115.76"><defs><linearGradient id="uuid-74d9dcc8-7827-4bcc-8f75-0aaddd1d4bf9" x1="373.98" y1="40.62" x2="373.98" y2="39.62" gradientTransform="translate(-270008 1609) scale(723 -39)" gradientUnits="userSpaceOnUse"><stop offset="0" stop-color="#ebebeb"/><stop offset="1" stop-color="#ebebeb" stop-opacity="0"/></linearGradient></defs><g><path d="M27.92,25H735.08l7.92,39H20l7.92-39Z" style="fill:url(#uuid-74d9dcc8-7827-4bcc-8f75-0aaddd1d4bf9); fill-rule:evenodd;"/><path d="M0,27C132.6,11,261.93,3,388,3s251.4,8,376,24l-24,22c-111.44-13.33-228.77-20-352-20S143.44,35.67,24,49L0,27Z" style="fill:#bbb; fill-rule:evenodd;"/><path d="M0,24C132.92,8,262.26,0,388,0s251.08,8,376,24v3c-121.65-15.33-246.98-23-376-23S129.65,11.67,0,27v-3Z" style="fill:#aaa; fill-rule:evenodd;"/></g><g><path d="M362.11,46.54c.06,.64,.25,1.1,.57,1.38,.32,.28,.78,.42,1.39,.42,.67,0,1.17-.22,1.49-.67,.32-.45,.51-1.1,.56-1.97h-3.14v-1.66h3.13c-.05-.89-.25-1.55-.6-1.98-.34-.43-.83-.65-1.47-.65s-1.08,.15-1.39,.44c-.31,.29-.49,.77-.54,1.42h-2.05c.1-1.09,.5-1.95,1.19-2.58s1.62-.94,2.79-.94c.83,0,1.56,.2,2.18,.58,.63,.39,1.11,.95,1.44,1.68,.34,.73,.5,1.57,.5,2.54v.65c0,1.47-.37,2.63-1.1,3.49-.73,.86-1.73,1.29-3.01,1.29-1.17,0-2.12-.31-2.82-.93-.71-.62-1.1-1.46-1.18-2.51h2.05Z" style="fill:#222;"/><path d="M372.86,45.78h-1.18v4.07h-2.05v-9.95h2.05v3.99h.94l2.43-3.99h2.5l-3.07,4.71,3.39,5.24h-2.44l-2.56-4.07Z" style="fill:#222;"/><path d="M380.69,46.34v3.51h-2.05v-9.95h3.88c.75,0,1.4,.14,1.97,.41,.57,.27,1,.66,1.31,1.17,.3,.5,.46,1.08,.46,1.72,0,.98-.33,1.74-1,2.31-.67,.56-1.59,.84-2.77,.84h-1.79Zm0-1.66h1.83c.54,0,.96-.13,1.24-.38,.29-.25,.43-.62,.43-1.09s-.14-.88-.43-1.18c-.29-.3-.68-.46-1.19-.46h-1.88v3.12Z" style="fill:#222;"/><path d="M392.06,47.8h-3.59l-.68,2.05h-2.18l3.7-9.95h1.9l3.72,9.95h-2.18l-.69-2.05Zm-3.04-1.66h2.49l-1.25-3.73-1.24,3.73Z" style="fill:#222;"/><path d="M403.95,49.85h-2.05v-4.27h-4v4.27h-2.05v-9.95h2.05v4.03h4v-4.03h2.05v9.95Z" style="fill:#222;"/></g></svg>